<svg width="762" height="882" viewBox="0 0 762 882" fill="none" xmlns="http://www.w3.org/2000/svg">
<g clip-path="url(#clip0_1_207001)">
<rect width="762" height="882" fill="#F3FAFC"/>
<mask id="mask0_1_207001" style="mask-type:alpha" maskUnits="userSpaceOnUse" x="-233" y="-213" width="634" height="634">
<rect x="-233" y="64.9141" width="451.07" height="451.07" transform="rotate(-38.0332 -233 64.9141)" fill="#D9D9D9"/>
</mask>
<g mask="url(#mask0_1_207001)">
<path d="M215.538 227.079C190.898 246.353 163.149 254.132 132.291 250.415C101.434 246.698 76.3633 232.513 57.0793 207.86L50.7539 199.773C28.7367 212.808 5.05097 216.973 -20.3034 212.268C-45.6559 207.566 -66.4601 194.823 -82.7161 174.042L-138.831 102.303C-141.798 98.5111 -143.002 94.3306 -142.443 89.7619C-141.884 85.1888 -139.71 81.4201 -135.92 78.4557L-104.888 54.1818L-107.783 50.4808C-110.244 47.3351 -111.241 43.866 -110.776 40.0737C-110.312 36.2789 -108.507 33.1512 -105.362 30.6905C-102.213 28.2279 -98.7443 27.2303 -94.9545 27.6979C-91.1641 28.1611 -88.0385 29.9655 -85.5778 33.1113L-62.4185 62.7186C-59.9578 65.8643 -58.9593 69.3346 -59.423 73.1294C-59.8887 76.9217 -61.6956 80.0492 -64.8438 82.5118C-67.9896 84.9725 -71.4577 85.9713 -75.2481 85.5081C-79.0379 85.0405 -82.1632 83.2339 -84.6239 80.0881L-87.5188 76.3872L-109.724 93.7567L-60.5106 156.672C-47.773 172.956 -31.0707 182.361 -10.4038 184.886C10.2632 187.412 28.7386 182.305 45.0226 169.568C61.3066 156.83 70.7113 140.128 73.2367 119.461C75.7621 98.7941 70.656 80.3186 57.9184 64.0346L8.70473 1.11923L-13.5007 18.4888L-10.6058 22.1897C-8.1451 25.3354 -7.14661 28.8057 -7.61032 32.6005C-8.07597 36.3928 -9.88292 39.5203 -13.0312 41.9829C-16.1769 44.4436 -19.645 45.4424 -23.4354 44.9792C-27.2253 44.5116 -30.3505 42.705 -32.8112 39.5592L-55.9706 9.95195C-58.4313 6.80618 -59.4288 3.33713 -58.9631 -0.455199C-58.5019 -4.24807 -56.6972 -7.37581 -53.5489 -9.83842C-50.4032 -12.2991 -46.9341 -13.2966 -43.1418 -12.831C-39.3514 -12.3678 -36.2258 -10.5633 -33.7651 -7.41758L-30.8702 -3.71667L0.15817 -27.9877C3.95036 -30.954 8.13178 -32.1568 12.7024 -31.5961C17.2736 -31.0397 21.0423 -28.8654 24.0087 -25.0733L80.1238 46.6651C96.3797 67.4469 103.737 90.7072 102.197 116.446C100.658 142.187 90.9119 164.173 72.9593 182.404L79.2847 190.49C93.7593 208.995 112.553 219.647 135.665 222.447C158.778 225.246 179.606 219.394 198.15 204.888C216.655 190.413 227.317 171.633 230.138 148.548C232.959 125.463 227.133 104.668 212.658 86.1631L193.931 62.222C184.234 65.8615 174.291 66.3479 164.1 63.6812C153.907 61.0164 145.51 55.465 138.909 47.0269C130.684 36.5114 127.375 24.6911 128.984 11.5659C130.589 -1.55732 136.654 -12.2345 147.177 -20.4658C157.697 -28.6951 169.514 -32.0051 182.628 -30.396C195.742 -28.7868 206.412 -22.7245 214.637 -12.2089C221.238 -3.77089 224.604 5.71568 224.736 16.2508C224.87 26.784 222.003 36.3179 216.136 44.8524L234.863 68.7936C254.147 93.4466 261.908 121.172 258.144 151.97C254.381 182.768 240.179 207.805 215.538 227.079ZM189.022 33.0675C193.406 29.638 195.928 25.2255 196.587 19.8302C197.246 14.4348 195.861 9.54492 192.432 5.16059C189.002 0.776251 184.591 -1.74437 179.197 -2.40119C173.802 -3.06049 168.912 -1.67537 164.528 1.75415C160.143 5.18366 157.622 9.5961 156.962 14.9915C156.301 20.3844 157.685 25.2731 161.115 29.6574C164.544 34.0417 168.957 36.5636 174.352 37.2229C179.747 37.8821 184.637 36.497 189.022 33.0675Z" fill="#D4EDF4" fill-opacity="0.35"/>
</g>
<mask id="mask1_1_207001" style="mask-type:alpha" maskUnits="userSpaceOnUse" x="108" y="-317" width="615" height="614">
<rect x="502.609" y="-317" width="451.07" height="451.07" transform="rotate(60.7639 502.609 -317)" fill="#D9D9D9"/>
</mask>
<g mask="url(#mask1_1_207001)">
<path d="M273.75 101.463C258.471 74.1644 255.028 45.5522 263.42 15.6263C271.813 -14.2995 289.665 -36.9059 316.978 -52.1927L325.936 -57.207C316.422 -80.9586 315.929 -105.003 324.456 -129.339C332.98 -153.674 348.754 -172.285 371.778 -185.171L451.254 -229.655C455.455 -232.007 459.771 -232.557 464.2 -231.307C468.634 -230.055 472.026 -227.33 474.376 -223.131L493.618 -188.752L497.719 -191.047C501.204 -192.998 504.784 -193.453 508.461 -192.413C512.14 -191.374 514.955 -189.112 516.906 -185.627C518.858 -182.139 519.313 -178.558 518.271 -174.885C517.234 -171.21 514.973 -168.397 511.488 -166.446L478.687 -148.087C475.202 -146.137 471.62 -145.681 467.94 -146.719C464.264 -147.76 461.45 -150.024 459.497 -153.511C457.547 -156.996 457.09 -160.576 458.128 -164.251C459.169 -167.925 461.433 -170.737 464.918 -172.688L469.018 -174.983L455.249 -199.584L385.547 -160.571C367.506 -150.473 355.658 -135.406 350.002 -115.368C344.345 -95.3308 346.566 -76.2918 356.663 -58.2513C366.76 -40.2109 381.828 -28.3624 401.865 -22.706C421.903 -17.0496 440.942 -19.27 458.983 -29.3674L528.684 -68.3801L514.915 -92.9808L510.815 -90.6859C507.33 -88.7353 503.748 -88.2793 500.068 -89.3179C496.392 -90.358 493.578 -92.622 491.625 -96.1098C489.675 -99.5949 489.218 -103.175 490.256 -106.85C491.297 -110.524 493.561 -113.336 497.046 -115.287L529.847 -133.645C533.332 -135.596 536.913 -136.051 540.589 -135.011C544.267 -133.975 547.082 -131.713 549.034 -128.226C550.984 -124.741 551.44 -121.16 550.4 -117.483C549.362 -113.808 547.101 -110.995 543.616 -109.045L539.516 -106.75L558.756 -72.3747C561.107 -68.1734 561.656 -63.8573 560.403 -59.4261C559.154 -54.9938 556.429 -51.602 552.228 -49.2505L472.752 -4.76683C449.728 8.1196 425.616 11.8333 400.416 6.37427C375.213 0.916756 354.976 -12.0768 339.705 -32.6064L330.747 -27.5921C310.246 -16.1178 296.845 0.825625 290.544 23.2381C284.242 45.6505 286.841 67.1289 298.34 87.6732C309.814 108.174 326.742 121.583 349.125 127.902C371.507 134.22 392.949 131.642 413.449 120.168L439.973 105.322C437.859 95.1832 438.899 85.2822 443.093 75.6191C447.285 65.9531 454.055 58.504 463.404 53.2717C475.053 46.7513 487.241 45.2894 499.966 48.8861C512.689 52.48 522.313 60.106 528.838 71.764C535.362 83.4192 536.825 95.6036 533.23 108.317C529.634 121.031 522.011 130.648 510.361 137.168C501.013 142.4 491.123 144.276 480.692 142.795C470.262 141.317 461.279 137.026 453.742 129.923L427.218 144.768C399.906 160.055 371.32 163.484 341.46 155.055C311.599 146.625 289.03 128.761 273.75 101.463ZM469.535 104.929C472.254 109.787 476.228 112.954 481.46 114.43C486.691 115.907 491.735 115.286 496.592 112.567C501.449 109.849 504.615 105.875 506.089 100.645C507.566 95.4141 506.945 90.3699 504.226 85.5127C501.507 80.6554 497.532 77.4884 492.301 76.0117C487.073 74.5335 482.03 75.1537 477.173 77.8724C472.316 80.591 469.149 84.5659 467.672 89.797C466.195 95.0281 466.816 100.072 469.535 104.929Z" fill="#D4EDF4" fill-opacity="0.35"/>
</g>
<mask id="mask2_1_207001" style="mask-type:alpha" maskUnits="userSpaceOnUse" x="95" y="38" width="625" height="624">
<rect x="719.609" y="416.961" width="451.07" height="451.07" transform="rotate(147.154 719.609 416.961)" fill="#D9D9D9"/>
</mask>
<g mask="url(#mask2_1_207001)">
<path d="M287.57 214.907C313.853 197.939 342.191 192.701 372.586 199.193C402.981 205.684 426.667 222.078 443.643 248.373L449.211 256.999C472.317 246.008 496.282 244.002 521.107 250.979C545.931 257.955 565.498 272.525 579.808 294.692L629.208 371.21C631.819 375.254 632.64 379.527 631.671 384.026C630.701 388.53 628.195 392.087 624.153 394.696L591.054 416.065L593.602 420.013C595.768 423.368 596.448 426.913 595.642 430.648C594.837 434.385 592.757 437.337 589.401 439.503C586.043 441.671 582.498 442.351 578.766 441.543C575.033 440.739 572.083 438.659 569.917 435.304L549.529 403.724C547.363 400.368 546.683 396.822 547.487 393.085C548.294 389.35 550.376 386.399 553.734 384.231C557.09 382.065 560.634 381.384 564.367 382.188C568.099 382.996 571.048 385.078 573.214 388.433L575.763 392.38L599.448 377.09L556.124 309.983C544.91 292.614 529.127 281.737 508.773 277.354C488.419 272.97 469.557 276.385 452.188 287.599C434.819 298.812 423.943 314.596 419.56 334.95C415.176 355.303 418.591 374.165 429.804 391.534L473.128 458.641L496.813 443.35L494.265 439.402C492.099 436.047 491.418 432.501 492.223 428.763C493.029 425.029 495.112 422.077 498.47 419.91C501.825 417.743 505.369 417.062 509.102 417.866C512.834 418.674 515.783 420.756 517.95 424.112L538.337 455.691C540.504 459.047 541.183 462.592 540.377 466.326C539.575 470.062 537.495 473.014 534.137 475.182C530.781 477.348 527.236 478.028 523.501 477.221C519.768 476.417 516.819 474.338 514.653 470.982L512.104 467.035L479.009 488.401C474.964 491.013 470.691 491.832 466.189 490.861C461.687 489.893 458.131 487.387 455.519 483.342L406.12 406.825C391.809 384.658 386.584 360.828 390.446 335.334C394.306 309.837 405.999 288.822 425.527 272.289L419.958 263.664C407.216 243.927 389.462 231.619 366.697 226.742C343.933 221.864 322.661 225.81 302.881 238.579C283.144 251.322 270.827 269.061 265.93 291.796C261.034 314.532 264.957 335.769 277.699 355.506L294.185 381.042C304.171 378.294 314.118 378.709 324.026 382.286C333.936 385.862 341.797 392.149 347.608 401.15C354.849 412.366 357.075 424.437 354.287 437.363C351.501 450.287 344.496 460.372 333.272 467.618C322.051 474.863 309.983 477.091 297.068 474.303C284.153 471.515 274.075 464.513 266.834 453.297C261.024 444.296 258.529 434.544 259.35 424.04C260.169 413.538 263.886 404.302 270.5 396.333L254.014 370.797C237.038 344.502 231.816 316.188 238.348 285.856C244.881 255.525 261.288 231.875 287.57 214.907ZM296.438 410.521C291.762 413.54 288.852 417.707 287.707 423.02C286.563 428.334 287.5 433.329 290.519 438.006C293.538 442.682 297.704 445.591 303.016 446.733C308.33 447.877 313.325 446.94 318.001 443.921C322.677 440.902 325.588 436.735 326.732 431.422C327.878 426.111 326.942 421.117 323.923 416.44C320.904 411.764 316.737 408.854 311.424 407.709C306.11 406.565 301.115 407.502 296.438 410.521Z" fill="#D4EDF4" fill-opacity="0.35"/>
</g>
<mask id="mask3_1_207001" style="mask-type:alpha" maskUnits="userSpaceOnUse" x="391" y="-213" width="621" height="621">
<rect x="775.074" y="-213" width="451.07" height="451.07" transform="rotate(58.372 775.074 -213)" fill="#D9D9D9"/>
</mask>
<g mask="url(#mask3_1_207001)">
<path d="M563.879 214.644C547.474 188.007 542.84 159.563 549.976 129.313C557.112 99.0632 574.006 75.7315 600.656 59.3181L609.398 53.9343C598.901 30.6005 597.404 6.59795 604.908 -18.0733C612.409 -42.7429 627.393 -61.9958 649.858 -75.8319L727.409 -123.594C731.509 -126.118 735.797 -126.849 740.275 -125.784C744.757 -124.719 748.26 -122.137 750.783 -118.041L771.444 -84.4943L775.444 -86.9583C778.845 -89.0527 782.404 -89.657 786.12 -88.7712C789.84 -87.887 792.747 -85.7447 794.841 -82.344C796.937 -78.9407 797.541 -75.382 796.654 -71.668C795.771 -67.9529 793.629 -65.0482 790.228 -62.9538L758.222 -43.2419C754.822 -41.1475 751.262 -40.5424 747.542 -41.4266C743.826 -42.3124 740.919 -44.457 738.823 -47.8603C736.729 -51.2609 736.123 -54.8188 737.006 -58.5338C737.894 -62.2479 740.038 -65.1521 743.438 -67.2465L747.439 -69.7105L732.655 -93.715L664.642 -51.8273C647.039 -40.9858 635.83 -25.4369 631.015 -5.18077C626.199 15.0754 629.212 34.0052 640.054 51.6085C650.895 69.2118 666.444 80.4211 686.701 85.2364C706.957 90.0516 725.886 87.0385 743.49 76.1969L811.503 34.3093L796.719 10.3047L792.718 12.7687C789.317 14.8631 785.757 15.4682 782.038 14.584C778.321 13.6982 775.415 11.5536 773.319 8.15034C771.224 4.74969 770.619 1.19184 771.502 -2.52323C772.389 -6.23728 774.533 -9.14149 777.934 -11.2359L809.94 -30.9477C813.341 -33.0421 816.899 -33.6464 820.616 -32.7606C824.334 -31.8791 827.241 -29.7367 829.337 -26.3334C831.431 -22.9328 832.036 -19.3741 831.15 -15.6574C830.267 -11.9423 828.125 -9.03756 824.724 -6.94317L820.723 -4.47919L841.381 29.0632C843.906 33.1626 844.635 37.4521 843.568 41.9317C842.505 46.4122 839.924 49.9149 835.824 52.4396L758.274 100.201C735.808 114.038 711.872 118.754 686.466 114.352C661.057 109.951 640.296 97.8132 624.182 77.9388L615.44 83.3226C595.436 95.6425 582.754 113.13 577.393 135.786C572.033 158.442 575.525 179.794 587.872 199.84C600.191 219.844 617.665 232.535 640.291 237.914C662.918 243.292 684.233 239.822 704.237 227.502L730.118 211.562C727.583 201.521 728.209 191.585 731.996 181.755C735.781 171.923 742.234 164.197 751.356 158.58C762.724 151.579 774.839 149.609 787.703 152.672C800.565 155.732 810.499 162.949 817.505 174.325C824.509 185.698 826.481 197.81 823.418 210.663C820.356 223.515 813.142 233.442 801.774 240.443C792.652 246.061 782.849 248.348 772.365 247.304C761.883 246.262 752.728 242.35 744.902 235.567L719.021 251.507C692.37 267.92 663.952 272.539 633.766 265.363C603.58 258.187 580.285 241.281 563.879 214.644ZM759.638 209.936C762.557 214.676 766.66 217.674 771.949 218.931C777.237 220.189 782.251 219.358 786.99 216.439C791.73 213.52 794.727 209.417 795.981 204.13C797.238 198.842 796.407 193.828 793.488 189.089C790.569 184.349 786.466 181.351 781.178 180.094C775.892 178.835 770.88 179.665 766.14 182.584C761.4 185.503 758.402 189.607 757.145 194.895C755.888 200.183 756.719 205.197 759.638 209.936Z" fill="#D4EDF4" fill-opacity="0.35"/>
</g>
<mask id="mask4_1_207001" style="mask-type:alpha" maskUnits="userSpaceOnUse" x="-215" y="188" width="615" height="614">
<rect x="179.609" y="188" width="451.07" height="451.07" transform="rotate(60.7639 179.609 188)" fill="#D9D9D9"/>
</mask>
<g mask="url(#mask4_1_207001)">
<path d="M-49.2495 606.463C-64.5287 579.164 -67.9721 550.552 -59.5795 520.626C-51.187 490.7 -33.3346 468.094 -6.02245 452.807L2.93628 447.793C-6.57772 424.041 -7.07118 399.997 1.45591 375.661C9.98027 351.326 25.7542 332.715 48.7776 319.829L128.254 275.345C132.455 272.993 136.771 272.443 141.2 273.693C145.634 274.945 149.026 277.67 151.376 281.869L170.618 316.248L174.719 313.953C178.204 312.002 181.784 311.547 185.461 312.587C189.14 313.626 191.955 315.888 193.906 319.373C195.858 322.861 196.313 326.442 195.271 330.115C194.234 333.79 191.973 336.603 188.488 338.554L155.687 356.913C152.202 358.863 148.62 359.319 144.94 358.281C141.264 357.24 138.45 354.976 136.497 351.489C134.547 348.004 134.09 344.424 135.128 340.749C136.169 337.075 138.433 334.263 141.918 332.312L146.018 330.017L132.249 305.416L62.5468 344.429C44.5064 354.527 32.6579 369.594 27.0015 389.632C21.3451 409.669 23.5656 428.708 33.663 446.749C43.7604 464.789 58.8279 476.638 78.8655 482.294C98.903 487.95 117.942 485.73 135.983 475.633L205.684 436.62L191.915 412.019L187.815 414.314C184.33 416.265 180.748 416.721 177.068 415.682C173.392 414.642 170.578 412.378 168.625 408.89C166.675 405.405 166.218 401.825 167.256 398.15C168.297 394.476 170.561 391.664 174.046 389.713L206.847 371.355C210.332 369.404 213.913 368.949 217.589 369.989C221.267 371.025 224.082 373.287 226.034 376.774C227.984 380.259 228.44 383.84 227.4 387.517C226.362 391.192 224.101 394.005 220.616 395.955L216.516 398.25L235.756 432.625C238.107 436.827 238.656 441.143 237.403 445.574C236.154 450.006 233.429 453.398 229.228 455.75L149.752 500.233C126.728 513.12 102.616 516.833 77.4159 511.374C52.2128 505.917 31.976 492.923 16.7055 472.394L7.74674 477.408C-12.7538 488.882 -26.1548 505.826 -32.4563 528.238C-38.7578 550.651 -36.1592 572.129 -24.6604 592.673C-13.1861 613.174 3.7423 626.583 26.1247 632.902C48.5071 639.22 69.9486 636.642 90.4491 625.168L116.973 610.322C114.859 600.183 115.899 590.282 120.093 580.619C124.285 570.953 131.055 563.504 140.404 558.272C152.053 551.751 164.241 550.289 176.966 553.886C189.689 557.48 199.313 565.106 205.838 576.764C212.362 588.419 213.825 600.604 210.23 613.317C206.634 626.031 199.011 635.648 187.361 642.168C178.013 647.4 168.123 649.276 157.692 647.795C147.262 646.317 138.279 642.026 130.742 634.923L104.218 649.768C76.9061 665.055 48.3199 668.484 18.4597 660.055C-11.4006 651.625 -33.9703 633.761 -49.2495 606.463ZM146.535 609.929C149.254 614.787 153.228 617.954 158.46 619.43C163.691 620.907 168.735 620.286 173.592 617.567C178.449 614.849 181.615 610.875 183.089 605.645C184.566 600.414 183.945 595.37 181.226 590.513C178.507 585.655 174.532 582.488 169.301 581.012C164.073 579.534 159.03 580.154 154.173 582.872C149.316 585.591 146.149 589.566 144.672 594.797C143.195 600.028 143.816 605.072 146.535 609.929Z" fill="#D4EDF4" fill-opacity="0.35"/>
</g>
<mask id="mask5_1_207001" style="mask-type:alpha" maskUnits="userSpaceOnUse" x="-84" y="554" width="593" height="593">
<rect x="508.125" y="968.719" width="451.07" height="451.07" transform="rotate(156.84 508.125 968.719)" fill="#D9D9D9"/>
</mask>
<g mask="url(#mask5_1_207001)">
<path d="M116.243 696.855C145.005 684.552 173.821 684.156 202.69 695.669C231.56 707.183 252.149 727.328 264.459 756.104L268.497 765.544C293.122 758.597 317.083 760.652 340.381 771.707C363.677 782.759 380.513 800.415 390.89 824.673L426.711 908.411C428.605 912.838 428.695 917.187 426.983 921.46C425.269 925.736 422.2 928.821 417.777 930.713L381.553 946.208L383.401 950.528C384.972 954.2 385.046 957.809 383.622 961.355C382.2 964.903 379.653 967.463 375.981 969.034C372.306 970.606 368.697 970.679 365.154 969.255C361.61 967.834 359.052 965.288 357.481 961.616L342.698 927.056C341.127 923.384 341.053 919.774 342.475 916.225C343.898 912.679 346.448 910.12 350.122 908.548C353.794 906.978 357.403 906.903 360.947 908.323C364.49 909.748 367.047 912.296 368.618 915.968L370.466 920.288L396.386 909.2L364.97 835.761C356.839 816.753 343.111 803.376 323.784 795.63C304.458 787.885 285.291 788.077 266.283 796.208C247.275 804.339 233.898 818.068 226.153 837.394C218.407 856.72 218.6 875.888 226.731 894.895L258.146 968.335L284.066 957.247L282.218 952.928C280.647 949.256 280.573 945.645 281.995 942.097C283.419 938.551 285.968 935.992 289.643 934.42C293.315 932.849 296.923 932.774 300.467 934.195C304.01 935.619 306.567 938.168 308.138 941.84L322.922 976.4C324.492 980.072 324.566 983.68 323.143 987.226C321.723 990.774 319.176 993.333 315.501 994.905C311.829 996.476 308.22 996.55 304.675 995.126C301.13 993.706 298.572 991.159 297.002 987.487L295.154 983.167L258.935 998.661C254.508 1000.55 250.158 1000.64 245.885 998.928C241.609 997.217 238.525 994.148 236.632 989.722L200.811 905.983C190.434 881.725 189.293 857.356 197.389 832.875C205.484 808.391 220.546 789.643 242.577 776.631L238.539 767.192C229.299 745.592 213.87 730.473 192.25 721.835C170.631 713.196 148.998 713.507 127.352 722.766C105.752 732.006 90.626 747.42 81.9739 769.008C73.3218 790.595 73.6157 812.189 82.8555 833.789L94.81 861.735C105.116 860.706 114.851 862.789 124.016 867.982C133.184 873.174 139.874 880.695 144.088 890.544C149.338 902.819 149.502 915.092 144.579 927.365C139.658 939.636 131.056 948.399 118.773 953.654C106.493 958.907 94.2218 959.073 81.9603 954.151C69.6988 949.23 60.9427 940.632 55.6921 928.357C51.4787 918.508 50.6604 908.475 53.2372 898.259C55.8111 888.044 61.0287 879.566 68.8901 872.823L56.9356 844.877C44.6257 816.1 44.2421 787.312 55.7848 758.511C67.3275 729.711 87.4801 709.159 116.243 696.855ZM92.0711 891.173C86.9534 893.362 83.3834 896.979 81.3613 902.025C79.3392 907.07 79.4228 912.152 81.612 917.27C83.8012 922.387 87.4179 925.956 92.4621 927.975C97.5074 929.997 102.589 929.914 107.707 927.724C112.824 925.535 116.394 921.918 118.417 916.872C120.44 911.83 120.357 906.75 118.168 901.632C115.979 896.514 112.361 892.944 107.316 890.922C102.27 888.9 97.1889 888.984 92.0711 891.173Z" fill="#D4EDF4" fill-opacity="0.35"/>
</g>
<mask id="mask6_1_207001" style="mask-type:alpha" maskUnits="userSpaceOnUse" x="544" y="102" width="638" height="638">
<rect x="544.094" y="437.508" width="451.07" height="451.07" transform="rotate(-48.0392 544.094 437.508)" fill="#D9D9D9"/>
</mask>
<g mask="url(#mask6_1_207001)">
<path d="M1013.98 519.272C993.067 542.534 967.091 555.016 936.058 556.717C905.024 558.418 877.87 548.805 854.596 527.877L846.961 521.013C827.544 537.674 804.942 545.891 779.156 545.663C753.372 545.438 730.67 536.504 711.051 518.863L643.325 457.966C639.744 454.747 637.832 450.839 637.588 446.243C637.344 441.642 638.83 437.553 642.047 433.975L668.39 404.678L664.896 401.537C661.926 398.866 660.341 395.624 660.141 391.808C659.938 387.99 661.172 384.597 663.842 381.627C666.515 378.655 669.758 377.069 673.571 376.871C677.384 376.669 680.776 377.903 683.746 380.573L711.697 405.706C714.667 408.377 716.253 411.621 716.456 415.438C716.656 419.254 715.42 422.648 712.748 425.62C710.077 428.59 706.836 430.176 703.022 430.378C699.209 430.576 695.817 429.34 692.847 426.67L689.354 423.528L670.504 444.492L729.9 497.899C745.274 511.722 763.356 518.082 784.147 516.978C804.939 515.874 822.246 507.636 836.069 492.262C849.892 476.889 856.252 458.807 855.148 438.015C854.044 417.224 845.806 399.917 830.432 386.094L771.036 332.686L752.186 353.65L755.68 356.791C758.65 359.462 760.236 362.706 760.439 366.523C760.639 370.339 759.403 373.733 756.73 376.705C754.06 379.675 750.818 381.261 747.005 381.463C743.192 381.661 739.8 380.425 736.83 377.755L708.879 352.622C705.909 349.952 704.324 346.709 704.123 342.893C703.919 339.078 705.153 335.684 707.825 332.712C710.495 329.742 713.738 328.157 717.554 327.957C721.367 327.754 724.759 328.988 727.728 331.658L731.222 334.8L757.562 305.507C760.781 301.927 764.69 300.016 769.288 299.774C773.887 299.528 777.976 301.014 781.556 304.233L849.282 365.13C868.902 382.771 880.189 404.4 883.144 430.015C886.101 455.632 880.323 478.977 865.811 500.049L873.445 506.914C890.915 522.622 911.273 529.846 934.521 528.588C957.768 527.329 977.263 517.946 993.005 500.439C1008.71 482.97 1015.95 462.623 1014.72 439.398C1013.48 416.174 1004.13 396.708 986.663 381L964.061 360.677C955.144 365.945 945.437 368.152 934.937 367.297C924.436 366.443 915.202 362.435 907.236 355.273C897.309 346.346 891.997 335.28 891.3 322.076C890.601 308.873 894.718 297.304 903.651 287.37C912.582 277.438 923.644 272.125 936.838 271.431C950.032 270.737 961.593 274.854 971.52 283.78C979.486 290.943 984.449 299.7 986.41 310.052C988.372 320.402 987.206 330.289 982.911 339.713L1005.51 360.036C1028.79 380.963 1041.25 406.919 1042.89 437.903C1044.54 468.886 1034.9 496.009 1013.98 519.272ZM954.161 332.818C957.883 328.679 959.599 323.896 959.311 318.468C959.023 313.04 956.809 308.465 952.67 304.743C948.531 301.022 943.749 299.306 938.323 299.596C932.895 299.884 928.321 302.098 924.599 306.237C920.877 310.376 919.16 315.16 919.448 320.588C919.734 326.013 921.947 330.587 926.086 334.309C930.225 338.031 935.009 339.748 940.436 339.459C945.864 339.171 950.439 336.958 954.161 332.818Z" fill="#D4EDF4" fill-opacity="0.35"/>
</g>
<mask id="mask7_1_207001" style="mask-type:alpha" maskUnits="userSpaceOnUse" x="158" y="361" width="589" height="589">
<rect x="158" y="532.062" width="451.07" height="451.07" transform="rotate(-22.2861 158 532.062)" fill="#D9D9D9"/>
</mask>
<g mask="url(#mask7_1_207001)">
<path d="M545.691 809.87C516.744 821.734 487.926 821.69 459.235 809.737C430.545 797.785 410.265 777.329 398.395 748.368L394.502 738.868C369.774 745.438 345.846 743.018 322.72 731.609C299.596 720.203 283.03 702.293 273.025 677.879L238.485 593.604C236.659 589.149 236.635 584.799 238.412 580.553C240.191 576.303 243.306 573.266 247.758 571.441L284.214 556.5L282.432 552.153C280.917 548.457 280.898 544.848 282.376 541.324C283.852 537.797 286.438 535.277 290.133 533.762C293.832 532.247 297.441 532.228 300.962 533.707C304.485 535.181 307.003 537.766 308.518 541.461L322.773 576.243C324.287 579.938 324.306 583.549 322.83 587.076C321.353 590.6 318.765 593.119 315.067 594.635C311.371 596.15 307.762 596.17 304.24 594.695C300.719 593.217 298.201 590.63 296.687 586.934L294.905 582.586L268.819 593.278L299.111 667.188C306.951 686.318 320.474 699.902 339.68 707.942C358.886 715.981 378.053 716.081 397.183 708.241C416.313 700.4 429.898 686.877 437.937 667.671C445.977 648.466 446.076 629.298 438.236 610.168L407.944 536.258L381.858 546.949L383.64 551.297C385.155 554.992 385.174 558.603 383.698 562.13C382.22 565.653 379.632 568.173 375.934 569.689C372.238 571.203 368.629 571.223 365.107 569.749C361.586 568.27 359.069 565.683 357.554 561.988L343.299 527.207C341.784 523.511 341.766 519.901 343.243 516.378C344.716 512.852 347.302 510.332 351.001 508.816C354.696 507.302 358.306 507.283 361.829 508.76C365.352 510.235 367.87 512.82 369.385 516.515L371.167 520.863L407.618 505.924C412.073 504.098 416.424 504.075 420.67 505.855C424.919 507.631 427.956 510.747 429.782 515.202L464.322 599.477C474.328 623.89 475.096 648.275 466.628 672.629C458.161 696.987 442.814 715.503 420.588 728.177L424.481 737.676C433.391 759.415 448.588 774.767 470.073 783.735C491.558 792.702 513.193 792.721 534.978 783.793C556.716 774.884 572.076 759.702 581.056 738.249C590.036 716.795 590.072 695.2 581.162 673.461L569.635 645.336C559.315 646.208 549.613 643.977 540.528 638.645C531.441 633.314 524.866 625.692 520.803 615.779C515.74 603.426 515.764 591.151 520.874 578.955C525.981 566.76 534.715 558.13 547.077 553.063C559.436 547.998 571.708 548.019 583.893 553.127C596.078 558.235 604.702 566.965 609.765 579.318C613.827 589.231 614.493 599.275 611.76 609.451C609.031 619.625 603.685 628.023 595.721 634.645L607.248 662.77C619.118 691.731 619.063 720.522 607.082 749.143C595.101 777.764 574.638 798.006 545.691 809.87ZM572.823 615.944C577.973 613.833 581.598 610.27 583.697 605.256C585.796 600.242 585.79 595.16 583.679 590.01C581.568 584.859 578.006 581.236 572.993 579.14C567.979 577.041 562.897 577.047 557.747 579.158C552.596 581.269 548.971 584.831 546.872 589.845C544.772 594.856 544.778 599.937 546.889 605.088C549 610.238 552.562 613.863 557.576 615.962C562.59 618.061 567.672 618.055 572.823 615.944Z" fill="#D4EDF4" fill-opacity="0.35"/>
</g>
<mask id="mask8_1_207001" style="mask-type:alpha" maskUnits="userSpaceOnUse" x="427" y="534" width="633" height="633">
<rect x="785.23" y="534" width="451.07" height="451.07" transform="rotate(52.5775 785.23 534)" fill="#D9D9D9"/>
</mask>
<g mask="url(#mask8_1_207001)">
<path d="M618.293 980.781C599.282 955.936 591.8 928.106 595.845 897.29C599.891 866.474 614.343 841.556 639.2 822.536L647.353 816.297C634.554 794.142 630.642 770.413 635.617 745.111C640.589 719.81 653.552 699.143 674.506 683.109L746.838 627.762C750.662 624.836 754.855 623.677 759.417 624.283C763.984 624.891 767.73 627.105 770.654 630.926L794.595 662.215L798.327 659.36C801.499 656.933 804.978 655.973 808.765 656.479C812.555 656.983 815.663 658.821 818.09 661.993C820.519 665.167 821.48 668.646 820.972 672.431C820.468 676.216 818.631 679.322 815.459 681.749L785.606 704.592C782.435 707.019 778.954 707.98 775.164 707.476C771.377 706.97 768.269 705.13 765.84 701.956C763.413 698.784 762.451 695.305 762.955 691.52C763.463 687.736 765.303 684.63 768.474 682.203L772.206 679.347L755.074 656.958L691.638 705.498C675.219 718.062 665.637 734.663 662.891 755.302C660.146 775.94 665.055 794.469 677.618 810.888C690.181 827.307 706.782 836.889 727.421 839.635C748.06 842.38 766.589 837.471 783.008 824.908L846.444 776.368L829.312 753.978L825.581 756.834C822.409 759.261 818.928 760.222 815.139 759.718C811.351 759.212 808.243 757.372 805.814 754.197C803.387 751.026 802.426 747.547 802.929 743.762C803.437 739.977 805.277 736.871 808.449 734.444L838.301 711.602C841.473 709.175 844.953 708.214 848.74 708.72C852.527 709.222 855.636 711.06 858.065 714.234C860.492 717.406 861.452 720.886 860.946 724.673C860.443 728.458 858.605 731.564 855.433 733.991L851.702 736.847L875.64 768.132C878.566 771.955 879.724 776.149 879.115 780.714C878.51 785.279 876.296 789.024 872.472 791.95L800.14 847.297C779.186 863.331 755.848 870.44 730.127 868.625C704.404 866.812 682.523 856.832 664.485 838.686L656.332 844.925C637.674 859.202 626.822 877.881 623.776 900.962C620.73 924.043 626.361 944.933 640.668 963.63C654.944 982.288 673.61 993.151 696.664 996.217C719.718 999.284 740.573 993.679 759.231 979.403L783.371 960.932C779.835 951.197 779.454 941.249 782.229 931.087C785.003 920.923 790.643 912.586 799.151 906.075C809.754 897.963 821.609 894.78 834.716 896.528C847.821 898.274 858.433 904.452 866.552 915.062C874.669 925.669 877.853 937.521 876.104 950.617C874.355 963.713 868.179 974.318 857.577 982.43C849.069 988.941 839.547 992.205 829.011 992.225C818.477 992.247 808.974 989.279 800.502 983.321L776.363 1001.79C751.506 1020.81 723.699 1028.28 692.943 1024.19C662.187 1020.09 637.303 1005.63 618.293 980.781ZM812.576 956.334C815.958 960.754 820.344 963.323 825.732 964.04C831.12 964.757 836.024 963.424 840.445 960.041C844.865 956.659 847.433 952.274 848.147 946.888C848.864 941.5 847.531 936.596 844.148 932.175C840.766 927.754 836.38 925.186 830.992 924.469C825.607 923.75 820.704 925.082 816.283 928.465C811.862 931.847 809.294 936.233 808.577 941.621C807.86 947.009 809.193 951.913 812.576 956.334Z" fill="#D4EDF4" fill-opacity="0.35"/>
</g>
</g>
<defs>
<clipPath id="clip0_1_207001">
<rect width="762" height="882" fill="white"/>
</clipPath>
</defs>
</svg>
