<svg width="264" height="248" viewBox="0 0 264 248" fill="none" xmlns="http://www.w3.org/2000/svg">
<path d="M132.543 381.915C31.2218 381.915 -50.9149 299.778 -50.9149 198.457C-50.9149 97.1367 31.2218 15 132.543 15C233.863 15 316 97.1367 316 198.457C316 251.954 293.102 300.102 256.573 333.637L267.722 396.398L209.788 364.908C186.31 375.822 160.138 381.915 132.543 381.915Z" stroke="#F3FAFC" stroke-width="29" stroke-linejoin="round"/>
<path d="M233.743 106.718C208.977 77.4672 172.808 58.4395 132.523 58.4395C57.8655 58.4395 -2.65626 123.789 -2.65626 198.446C-2.65627 273.104 57.8655 328.798 132.523 328.798C207.18 328.798 267.702 273.104 267.702 198.446L180.801 198.446L156.662 241.897L132.523 130.857L108.384 198.446L50.4498 198.446" stroke="#F3FAFC" stroke-width="29" stroke-linecap="round" stroke-linejoin="round"/>
</svg>
